<svg xmlns="http://www.w3.org/2000/svg" viewBox="0 0 48 48" width="48px" height="48px">
  <path fill="#FF9800" d="M24,4C12.95,4,4,12.95,4,24s8.95,20,20,20s20-8.95,20-20S35.05,4,24,4z"/>
  <path fill="#FFF59D" d="M24,8c-8.84,0-16,7.16-16,16s7.16,16,16,16s16-7.16,16-16S32.84,8,24,8z"/>
  <path fill="#FFD54F" d="M24,13c-3.28,0-6.5,1.36-8.27,3.72c-0.39,0.52-0.29,1.26,0.23,1.66c0.52,0.39,1.26,0.29,1.66-0.23C19.14,16.2,21.43,15,24,15c2.57,0,4.86,1.2,6.38,3.15c0.39,0.51,1.14,0.6,1.65,0.21c0.51-0.39,0.6-1.14,0.21-1.65C30.5,14.36,27.28,13,24,13z"/>
  <path fill="#FFD54F" d="M35,24c0,1.66-1.34,3-3,3s-3-1.34-3-3s1.34-3,3-3S35,22.34,35,24z"/>
  <path fill="#FFD54F" d="M19,24c0,1.66-1.34,3-3,3s-3-1.34-3-3s1.34-3,3-3S19,22.34,19,24z"/>
  <path fill="#FF9800" d="M24,35c3.31,0,6-2.69,6-6H18C18,32.31,20.69,35,24,35z"/>
</svg>